<?xml version="1.0" encoding="utf-8"?>
<!-- Generator: Adobe Illustrator 26.5.0, SVG Export Plug-In . SVG Version: 6.00 Build 0)  -->
<svg version="1.1" id="_x24_" xmlns="http://www.w3.org/2000/svg" xmlns:xlink="http://www.w3.org/1999/xlink" x="0px" y="0px"
	 viewBox="0 0 114 114" enable-background="new 0 0 114 114" xml:space="preserve">
<g>
	<path fill="#FA8C6E" d="M60.3,56.4v-2.8C68.1,52.4,74,46.9,74,40.3s-5.9-12.1-13.7-13.3V13.6c2.3,0.5,4.3,1.7,5.7,3.6
		c0.5,0.7,1.3,1.2,2.2,1.4c0.9,0.2,1.8,0,2.5-0.6c0.4-0.3,0.7-0.6,0.9-1s0.4-0.8,0.5-1.2c0.1-0.4,0.1-0.9,0-1.3
		c-0.1-0.4-0.3-0.9-0.5-1.2c-2.4-3.5-6.5-5.9-11.3-6.7V4.8c0-0.9-0.4-1.8-1-2.4c-0.6-0.6-1.5-1-2.4-1c-0.9,0-1.8,0.4-2.4,1
		c-0.6,0.6-1,1.5-1,2.4v1.8c-7.7,1.2-13.6,6.7-13.6,13.3c0,6.6,5.8,12.1,13.6,13.3v13.3c-2.3-0.5-4.3-1.8-5.7-3.7
		c-0.2-0.4-0.6-0.7-0.9-1c-0.4-0.3-0.8-0.4-1.2-0.5c-0.4-0.1-0.9-0.1-1.3,0c-0.4,0.1-0.9,0.2-1.2,0.5c-0.8,0.5-1.3,1.3-1.5,2.1
		c-0.2,0.9,0,1.8,0.5,2.6c2.3,3.7,6.5,6.2,11.4,7v2.9c0,0.9,0.4,1.8,1,2.4c0.6,0.6,1.5,1,2.4,1c0.5,0,0.9-0.1,1.3-0.3
		c0.4-0.2,0.8-0.4,1.1-0.7c0.3-0.3,0.6-0.7,0.7-1.1C60.2,57.3,60.3,56.8,60.3,56.4z M67.2,40.2c0,2.9-2.9,5.5-6.8,6.4V33.8
		C64.3,34.8,67.2,37.3,67.2,40.2L67.2,40.2z M46.7,19.9c0-2.9,2.9-5.4,6.7-6.3v12.7C49.6,25.3,46.7,22.8,46.7,19.9z"/>
	<path fill="#FA8C6E" d="M49.6,79L25.4,65l-2.7-16.6c-0.4-2.6-1.7-4.9-3.7-6.6c-2-1.7-4.5-2.6-7.2-2.6c-0.9,0-1.8,0.4-2.4,1
		c-0.6,0.6-1,1.5-1,2.4v36.8c0.1,5.9,3.8,8.5,7.2,10.5l14.5,8.4l0.1,11c0,0.9,0.4,1.8,1,2.4c0.6,0.6,1.5,1,2.4,1h17.7
		c0.9,0,1.8-0.4,2.4-1c0.6-0.6,1-1.5,1-2.4V87.7c0-1.8-0.5-3.5-1.4-5C52.4,81.1,51.1,79.9,49.6,79z M47.8,105.8H37l0-9.5
		c0-0.6-0.2-1.2-0.5-1.7c-0.3-0.5-0.7-0.9-1.2-1.2L19,83.9c-3.3-1.9-3.8-2.8-3.8-4.7V47.7c0.4,0.5,0.6,1.1,0.7,1.8l2.7,16.4
		c-0.8,0.9-1.4,2-1.8,3.1c-0.4,1.1-0.5,2.4-0.5,3.6c0.1,1.5,0.5,3,1.3,4.3c0.8,1.3,1.8,2.4,3.1,3.3l15,9.6c0.5,0.4,1.2,0.5,1.8,0.5
		c0.6,0,1.1-0.1,1.6-0.4c0.5-0.3,0.9-0.7,1.2-1.2c0.2-0.4,0.4-0.8,0.5-1.2c0.1-0.4,0.1-0.9,0-1.3c-0.1-0.4-0.3-0.9-0.5-1.2
		c-0.3-0.4-0.6-0.7-1-0.9l-15-9.6c-0.4-0.2-0.7-0.6-0.9-1c-0.2-0.4-0.4-0.8-0.4-1.3c0-0.2,0-0.4,0-0.5l23,13.3
		c0.5,0.3,0.9,0.7,1.2,1.2c0.3,0.5,0.4,1.1,0.4,1.6L47.8,105.8z"/>
	<path fill="#FA8C6E" d="M105.6,42.5c0-0.9-0.4-1.8-1-2.4c-0.6-0.6-1.5-1-2.4-1c-2.6,0-5.2,0.9-7.2,2.6c-2,1.7-3.3,4.1-3.7,6.6
		L88.6,65L64.4,79c-1.5,0.9-2.8,2.2-3.7,3.7c-0.9,1.5-1.4,3.3-1.4,5v21.4c0,0.9,0.4,1.8,1,2.4s1.5,1,2.4,1h17.7c0.9,0,1.8-0.4,2.4-1
		s1-1.5,1-2.4l0.1-11l14.5-8.4c3.4-2,7.1-4.6,7.2-10.6L105.6,42.5z M94.9,83.9l-16.2,9.4c-0.5,0.3-0.9,0.7-1.2,1.2S77,95.6,77,96.2
		l0,9.5H66.1V87.7c0-0.6,0.2-1.1,0.4-1.6c0.3-0.5,0.7-0.9,1.2-1.2l23-13.3c0,0.2,0,0.4,0,0.5c0,0.5-0.2,0.9-0.4,1.3
		c-0.2,0.4-0.5,0.7-0.9,1l-15,9.6c-0.4,0.2-0.7,0.6-1,0.9c-0.3,0.4-0.4,0.8-0.5,1.2c-0.1,0.4-0.1,0.9,0,1.3c0.1,0.4,0.2,0.9,0.5,1.2
		c0.3,0.5,0.7,0.9,1.2,1.2c0.5,0.3,1.1,0.4,1.6,0.4c0.7,0,1.3-0.2,1.8-0.5l15-9.6c1.3-0.8,2.4-1.9,3.1-3.3c0.8-1.3,1.2-2.8,1.3-4.3
		c0.2-2.4-0.6-4.8-2.2-6.6L98,49.5c0.1-0.6,0.3-1.2,0.7-1.8v31.5C98.7,81.1,98.2,82,94.9,83.9z"/>
</g>
</svg>
