<?xml version="1.0" encoding="utf-8"?>
<!-- Generator: Adobe Illustrator 26.5.0, SVG Export Plug-In . SVG Version: 6.00 Build 0)  -->
<svg version="1.1" id="Layer_1" xmlns="http://www.w3.org/2000/svg" xmlns:xlink="http://www.w3.org/1999/xlink" x="0px" y="0px"
	 viewBox="0 0 16.7 16.4" enable-background="new 0 0 16.7 16.4" xml:space="preserve">
<path fill="#3A5A9F" d="M0,2.4C0,2,0.3,1.7,0.8,1.7h9.7v1.7H1.7v11.4h11.4V6h1.7v9.6c0,0.4-0.3,0.8-0.8,0.8H0.8
	c-0.4,0-0.8-0.3-0.8-0.8V2.4z"/>
<path fill="#3A5A9F" d="M14.7,3.3l1.3,1.3c0.1,0.1,0.3,0,0.3-0.1l0.5-4.2c0,0,0-0.1,0-0.1c0,0,0-0.1,0-0.1c0,0,0,0-0.1,0
	c0,0-0.1,0-0.1,0l-4.2,0.5c-0.2,0-0.2,0.2-0.1,0.3l1.3,1.3L8.3,7.3c-0.1,0.1-0.1,0.2,0,0.3l0.9,0.9c0.1,0.1,0.2,0.1,0.3,0L14.7,3.3z
	"/>
</svg>
