<?xml version="1.0" encoding="utf-8"?>
<!-- Generator: Adobe Illustrator 26.5.0, SVG Export Plug-In . SVG Version: 6.00 Build 0)  -->
<svg version="1.1" id="clock" xmlns="http://www.w3.org/2000/svg" xmlns:xlink="http://www.w3.org/1999/xlink" x="0px" y="0px"
	 viewBox="0 0 114 114" enable-background="new 0 0 114 114" xml:space="preserve">
<g>
	<path fill="#FA8C6E" d="M103.9,28L58.7,1.9c-0.1-0.1-0.2-0.1-0.3-0.2l-0.1,0c-0.2-0.1-0.4-0.1-0.6-0.2h-0.2c-0.4-0.1-0.8-0.1-1.2,0
		h-0.2c-0.2,0-0.4,0.1-0.6,0.2l-0.1,0c-0.1,0-0.2,0.1-0.3,0.2L10.1,28c-0.5,0.3-1,0.7-1.3,1.3c-0.3,0.5-0.5,1.1-0.5,1.7v52.2
		c0,0.6,0.2,1.2,0.5,1.7c0.3,0.5,0.7,0.9,1.2,1.2l45.2,26.1l0.3,0.2h0.1c0.2,0.1,0.4,0.1,0.6,0.2h0.2c0.2,0,0.4,0.1,0.6,0.1
		c0.2,0,0.4,0,0.6-0.1h0.2c0.2,0,0.4-0.1,0.6-0.2h0.1l0.3-0.2l45.2-26.1c0.5-0.3,0.9-0.7,1.2-1.2c0.3-0.5,0.5-1.1,0.5-1.7V30.9
		c0-0.6-0.2-1.2-0.5-1.7C104.9,28.7,104.4,28.3,103.9,28z M60.4,103.3v-5.8c0-0.9-0.4-1.8-1-2.4c-0.6-0.6-1.5-1-2.4-1
		s-1.8,0.4-2.4,1c-0.6,0.6-1,1.5-1,2.4v5.9L15.2,81.1V60.4h8.4c0.9,0,1.8-0.4,2.4-1c0.6-0.6,1-1.5,1-2.4s-0.4-1.8-1-2.4
		c-0.6-0.6-1.5-1-2.4-1h-8.4V32.9l38.4-22.2v5.9c0,0.9,0.4,1.8,1,2.4c0.6,0.6,1.5,1,2.4,1c0.9,0,1.8-0.4,2.4-1c0.6-0.6,1-1.5,1-2.4
		v-5.8l38.4,22.2v20.7h-8.4c-0.9,0-1.8,0.4-2.4,1c-0.6,0.6-1,1.5-1,2.4s0.4,1.8,1,2.4c0.6,0.6,1.5,1,2.4,1h8.3v20.7L60.4,103.3z"/>
	<path fill="#FA8C6E" d="M89.7,37.8c-0.2-0.4-0.5-0.7-0.9-1c-0.4-0.3-0.8-0.5-1.2-0.6c-0.4-0.1-0.9-0.1-1.3-0.1
		c-0.4,0.1-0.9,0.2-1.3,0.4L59.9,51.1V39.5c0-0.9-0.4-1.8-1-2.4c-0.6-0.6-1.5-1-2.4-1c-0.9,0-1.8,0.4-2.4,1c-0.6,0.6-1,1.5-1,2.4V57
		c0,0.1,0,0.1,0,0.2c0,0.1,0,0.2,0,0.4l0.1,0.3c0,0.1,0.1,0.2,0.1,0.3l0.2,0.3c0,0.1,0.1,0.1,0.1,0.2l0.1,0.1c0,0,0.1,0.1,0.1,0.1
		c0.1,0.1,0.2,0.3,0.3,0.4c0.1,0.1,0.3,0.3,0.5,0.4l0.1,0.1c0.1,0.1,0.3,0.2,0.5,0.2h0.1c0.2,0.1,0.4,0.1,0.6,0.2h0.1
		c0.2,0,0.4,0.1,0.6,0.1c0.2,0,0.4,0,0.6-0.1h0.1c0.2,0,0.4-0.1,0.6-0.2h0.1c0.1-0.1,0.2-0.1,0.3-0.2l30.3-17.4
		c0.8-0.5,1.4-1.2,1.6-2.1C90.3,39.6,90.2,38.6,89.7,37.8z"/>
</g>
</svg>
