<?xml version="1.0" encoding="utf-8"?>
<!-- Generator: Adobe Illustrator 26.5.0, SVG Export Plug-In . SVG Version: 6.00 Build 0)  -->
<svg version="1.1" id="Layer_1" xmlns="http://www.w3.org/2000/svg" xmlns:xlink="http://www.w3.org/1999/xlink" x="0px" y="0px"
	 viewBox="0 0 114 114" enable-background="new 0 0 114 114" xml:space="preserve">
<g>
	<path fill="#FA8C6E" d="M108.6,27.6c-0.4-0.8-1.2-1.4-2.1-1.6c-0.9-0.2-1.8-0.1-2.6,0.3L84.8,37.2c-8.7-6-17.7-9-27-9h-0.9
		c-11.4,0.2-23.3,5.2-34.2,14.4c-4.9,4.1-9.3,8.7-13.1,13.8c0,0.1-0.1,0.1-0.1,0.2c0,0.1-0.1,0.2-0.2,0.3l-0.1,0.3
		c0,0.1-0.1,0.2-0.1,0.3C9,57.7,9,57.8,9,57.9c0,0.1,0,0.2,0,0.3c0,0.1,0,0.2,0,0.3c0,0.1,0,0.2,0,0.3c0,0.1,0,0.2,0.1,0.3
		c0.1,0.1,0.1,0.2,0.1,0.3c0,0.1,0.1,0.2,0.1,0.3c0,0.1,0.1,0.2,0.2,0.3c0.1,0.1,0.1,0.2,0.2,0.3c0,0.1,0.1,0.1,0.1,0.2
		c3.7,4.5,7.7,8.7,12.1,12.5L6.6,81.8c-0.8,0.4-1.4,1.2-1.6,2.1c-0.2,0.9-0.1,1.8,0.3,2.6c0.3,0.5,0.7,1,1.3,1.3s1.1,0.5,1.7,0.5
		c0.6,0,1.2-0.1,1.7-0.4l17.6-10.1c9.3,6.4,18.9,9.7,28.7,9.7h1.2c27.2-0.7,46.1-25.8,46.8-26.8l0.1-0.2c0.1-0.1,0.1-0.2,0.2-0.3
		l0.1-0.3c0-0.1,0.1-0.2,0.1-0.3c0-0.1,0.1-0.2,0.1-0.3c0-0.1,0-0.2,0-0.3c0-0.1,0-0.2,0-0.3c0-0.1,0-0.2,0-0.3c0-0.1,0-0.2,0-0.3
		c0-0.1-0.1-0.2-0.1-0.3c0-0.1-0.1-0.2-0.1-0.3c0-0.1-0.1-0.2-0.1-0.3l-0.2-0.3c0-0.1-0.1-0.1-0.1-0.2c-4-5.3-8.6-10.2-13.7-14.6
		l16.6-9.5c0.4-0.2,0.7-0.5,1-0.9c0.3-0.4,0.5-0.8,0.6-1.2c0.1-0.4,0.2-0.9,0.1-1.3C109,28.4,108.8,28,108.6,27.6z M16.7,58.3
		c3.2-3.9,6.7-7.4,10.5-10.6c6.8-5.6,17.4-12.4,29.9-12.7h0.7c7.2,0.1,14.2,2.2,20.3,6l-7.3,4.1c-1.7-2-3.8-3.6-6.2-4.7
		c-2.4-1.1-5-1.7-7.7-1.7c-4.8,0-9.5,1.9-12.9,5.4c-3.4,3.4-5.3,8.1-5.4,12.9c0,2,0.3,4,1,5.9l-11.6,6.6
		C24,66.1,20.2,62.4,16.7,58.3L16.7,58.3z M68.4,57c0,1.5-0.3,3-0.9,4.4c-0.6,1.4-1.4,2.7-2.5,3.7c-1.1,1.1-2.3,1.9-3.7,2.5
		c-1.4,0.6-2.9,0.9-4.4,0.9c-2.9,0-5.7-1.1-7.8-3.1l18.9-10.8C68.3,55.4,68.4,56.2,68.4,57L68.4,57z M45.8,59.4
		c-0.2-0.8-0.3-1.6-0.3-2.4c0-3,1.2-5.9,3.4-8.1c2.1-2.1,5-3.3,8.1-3.3c2.9,0,5.7,1.1,7.8,3.1L45.8,59.4z M97.3,58.4
		c-4.9,5.7-20.2,21.6-39.9,22c-7.8,0.2-15.5-2-23-6.6l8.8-5c1.7,2,3.8,3.6,6.2,4.8c2.4,1.1,5,1.7,7.7,1.7c4.8,0,9.5-1.9,12.9-5.4
		c3.4-3.4,5.3-8.1,5.4-12.9c0-2-0.3-4-1-5.9l10-5.7C89.1,49.2,93.4,53.6,97.3,58.4L97.3,58.4z"/>
</g>
</svg>
