<?xml version="1.0" encoding="utf-8"?>
<!-- Generator: Adobe Illustrator 26.5.0, SVG Export Plug-In . SVG Version: 6.00 Build 0)  -->
<svg version="1.1" id="lock" xmlns="http://www.w3.org/2000/svg" xmlns:xlink="http://www.w3.org/1999/xlink" x="0px" y="0px"
	 viewBox="0 0 114 114" enable-background="new 0 0 114 114" xml:space="preserve">
<g>
	<path fill="#FA8C6E" d="M66.2,69.9c0-2.5-1-4.8-2.7-6.6c-1.7-1.7-4.1-2.7-6.6-2.7c-2.5,0-4.8,1-6.6,2.7c-1.7,1.7-2.7,4.1-2.7,6.6
		c0,1.9,0.6,3.7,1.6,5.2s2.5,2.7,4.3,3.4l0.1,8.8c0,0.9,0.4,1.8,1,2.4c0.6,0.6,1.5,1,2.4,1h0c0.4,0,0.9-0.1,1.3-0.3
		c0.4-0.2,0.8-0.4,1.1-0.8c0.3-0.3,0.6-0.7,0.7-1.1c0.2-0.4,0.2-0.9,0.2-1.3l-0.1-8.8c1.7-0.7,3.2-1.9,4.3-3.4
		C65.7,73.6,66.2,71.8,66.2,69.9z M56.9,67.5c0.7,0,1.3,0.3,1.8,0.7c0.5,0.5,0.7,1.1,0.7,1.8c0,0.7-0.3,1.3-0.7,1.7
		c-0.5,0.5-1.1,0.7-1.7,0.7c-0.7,0-1.3-0.3-1.8-0.7c-0.5-0.5-0.7-1.1-0.7-1.8c0-0.7,0.3-1.3,0.7-1.7C55.7,67.7,56.3,67.5,56.9,67.5z
		"/>
	<path fill="#FA8C6E" d="M105.6,59.3c0-0.1,0-0.1,0-0.2c0-0.3,0-0.6-0.1-0.8c-0.2-0.9-0.8-1.6-1.6-2.1L82.7,44.1V33.5
		c0-6.8-2.7-13.3-7.5-18.1c-4.8-4.8-11.3-7.5-18.1-7.5c-6.8,0-13.3,2.7-18.1,7.5c-4.8,4.8-7.5,11.3-7.5,18.1v10.4L10.1,56.3L10,56.3
		l-0.3,0.2c-0.1,0.1-0.2,0.1-0.2,0.2c-0.1,0.1-0.2,0.2-0.2,0.2c-0.1,0.1-0.1,0.2-0.2,0.3c-0.1,0.1-0.1,0.2-0.2,0.3
		c-0.1,0.1-0.1,0.2-0.2,0.3c0,0.1-0.1,0.2-0.1,0.3c0,0.1-0.1,0.2-0.1,0.3c0,0.1,0,0.2-0.1,0.3c0,0.1,0,0.2,0,0.4c0,0,0,0.1,0,0.1
		v30.3c0,0,0,0.1,0,0.1c0,0.1,0,0.2,0,0.4c0,0.1,0,0.2,0.1,0.3c0,0.1,0.1,0.2,0.1,0.3c0,0.1,0.1,0.2,0.1,0.3c0,0.1,0.1,0.2,0.2,0.3
		c0,0.1,0.1,0.2,0.2,0.3c0.1,0.1,0.1,0.2,0.2,0.3C9.3,91.9,9.4,92,9.5,92l0.2,0.2l0.3,0.2l0.1,0.1L33,105.7c0.1,0.1,0.2,0.1,0.3,0.2
		h0.1c0.2,0.1,0.4,0.1,0.6,0.2H34c0.2,0,0.4,0.1,0.6,0.1h44.7c0.2,0,0.4,0,0.6-0.1h0.1c0.2,0,0.4-0.1,0.6-0.2h0.1
		c0.1,0,0.2-0.1,0.3-0.2l22.1-12.8c0.5-0.2,1-0.4,1.4-0.8c0.6-0.6,0.9-1.4,1-2.3c0,0,0,0,0-0.1c0,0,0-0.1,0-0.1V59.3z M38.2,33.5
		c0-5,2-9.8,5.5-13.3c3.5-3.5,8.3-5.5,13.3-5.5h0c5,0,9.8,2,13.3,5.5s5.5,8.3,5.5,13.3v9.1H38.2V33.5z M78.4,99.3H35.5L15.2,87.6
		V61.2l20.3-11.7h42.9l20.3,11.7v26.4L78.4,99.3z"/>
</g>
</svg>
