<?xml version="1.0" encoding="utf-8"?>
<!-- Generator: Adobe Illustrator 26.5.0, SVG Export Plug-In . SVG Version: 6.00 Build 0)  -->
<svg version="1.1" id="sun" xmlns="http://www.w3.org/2000/svg" xmlns:xlink="http://www.w3.org/1999/xlink" x="0px" y="0px"
	 viewBox="0 0 114 114" enable-background="new 0 0 114 114" xml:space="preserve">
<path fill="#FA8C6E" d="M70.3,97.6l-9.9,5.7V72.9c0-0.9-0.4-1.8-1-2.4c-0.6-0.6-1.5-1-2.4-1c-0.9,0-1.8,0.4-2.4,1
	c-0.6,0.6-1,1.5-1,2.4v30.4l-9.9-5.7c-0.4-0.2-0.8-0.4-1.3-0.4c-0.4-0.1-0.9,0-1.3,0.1c-0.4,0.1-0.8,0.3-1.2,0.6
	c-0.4,0.3-0.7,0.6-0.9,1c-0.5,0.8-0.6,1.7-0.3,2.6c0.2,0.9,0.8,1.6,1.6,2.1l15.1,8.7c0.1,0.1,0.2,0.1,0.3,0.2h0.1
	c0.2,0.1,0.4,0.1,0.6,0.2h0.2c0.2,0,0.4,0.1,0.6,0.1c0.2,0,0.4,0,0.6-0.1h0.2c0.2,0,0.4-0.1,0.6-0.2h0.1c0.1-0.1,0.2-0.1,0.3-0.2
	l15.1-8.7c0.8-0.5,1.3-1.2,1.6-2.1c0.2-0.9,0.1-1.8-0.3-2.6c-0.2-0.4-0.5-0.7-0.9-1c-0.4-0.3-0.8-0.5-1.2-0.6
	c-0.4-0.1-0.9-0.2-1.3-0.1C71.1,97.2,70.7,97.3,70.3,97.6z"/>
<path fill="#FA8C6E" d="M103.9,80.2L85.3,69.5c1.3-2.9,2.1-5.9,2.4-9h14.4c0.9,0,1.8-0.4,2.4-1c0.6-0.6,1-1.5,1-2.4
	c0-0.9-0.4-1.8-1-2.4c-0.6-0.6-1.5-1-2.4-1H87.8c-0.4-3.1-1.2-6.2-2.5-9.1l18.5-10.7c0.8-0.5,1.4-1.2,1.6-2.1
	c0.2-0.9,0.1-1.8-0.3-2.6c-0.5-0.8-1.2-1.3-2.1-1.6c-0.9-0.2-1.8-0.1-2.6,0.4L82,38.7c-1.9-2.5-4.1-4.8-6.6-6.6l7.2-12.4
	c0.5-0.8,0.6-1.7,0.3-2.6c-0.2-0.9-0.8-1.6-1.6-2.1c-0.4-0.2-0.8-0.4-1.3-0.5c-0.4-0.1-0.9,0-1.3,0.1s-0.9,0.3-1.2,0.6
	c-0.4,0.3-0.7,0.6-0.9,1l-7.2,12.4c-2.9-1.3-5.9-2.1-9-2.4V4.9c0-0.9-0.4-1.8-1-2.4c-0.6-0.6-1.5-1-2.4-1s-1.8,0.4-2.4,1
	c-0.6,0.6-1,1.5-1,2.4v21.3c-3.1,0.3-6.2,1.2-9.1,2.4l-7.2-12.4c-0.2-0.4-0.5-0.7-0.9-1c-0.4-0.3-0.8-0.5-1.2-0.6
	c-0.4-0.1-0.9-0.1-1.3-0.1c-0.4,0.1-0.9,0.2-1.3,0.4c-0.8,0.5-1.4,1.2-1.6,2.1c-0.2,0.9-0.1,1.8,0.3,2.6L38.6,32
	c-2.5,1.9-4.8,4.1-6.6,6.6L13.5,28c-0.4-0.2-0.8-0.4-1.3-0.4c-0.4-0.1-0.9,0-1.3,0.1c-0.4,0.1-0.8,0.3-1.2,0.6
	c-0.4,0.3-0.7,0.6-0.9,1c-0.5,0.8-0.6,1.7-0.3,2.6c0.2,0.9,0.8,1.6,1.6,2.1l18.5,10.7c-1.3,2.9-2.1,5.9-2.4,9H11.8
	c-0.9,0-1.8,0.4-2.4,1c-0.6,0.6-1,1.5-1,2.4c0,0.9,0.4,1.8,1,2.4c0.6,0.6,1.5,1,2.4,1h14.4c0.3,3.1,1.2,6.2,2.4,9L10,80.2
	c-0.8,0.5-1.4,1.2-1.6,2.1c-0.2,0.9-0.1,1.8,0.3,2.6c0.3,0.5,0.7,0.9,1.2,1.2c0.5,0.3,1.1,0.5,1.7,0.5c0.6,0,1.2-0.2,1.7-0.5
	L32,75.4c2.5,3.4,5.6,6.2,9.3,8.4c0.6,0.4,1.3,0.7,2,0.7c0.9,0,1.8-0.4,2.4-1c0.6-0.6,1-1.5,1-2.4c0-0.6-0.2-1.2-0.4-1.7
	c-0.3-0.5-0.7-0.9-1.2-1.2c-3.7-2.1-6.8-5.2-9-8.9c-2.2-3.7-3.3-7.9-3.3-12.2c0-6.4,2.6-12.6,7.1-17.1c4.5-4.5,10.7-7.1,17.1-7.1
	c6.4,0,12.6,2.6,17.1,7.1c4.5,4.5,7.1,10.7,7.1,17.1c0,4.3-1.1,8.5-3.3,12.1c-2.1,3.7-5.2,6.7-8.9,8.9c-0.5,0.3-1,0.7-1.3,1.3
	c-0.3,0.5-0.5,1.1-0.5,1.7c0,0.9,0.4,1.8,1,2.4c0.6,0.6,1.5,1,2.4,1c0.7,0,1.5-0.2,2.1-0.7c3.6-2.1,6.7-5,9.2-8.3L100.5,86
	c0.5,0.3,1.1,0.5,1.7,0.5c0.6,0,1.2-0.2,1.7-0.5c0.5-0.3,0.9-0.7,1.2-1.2c0.4-0.8,0.6-1.7,0.3-2.6C105.2,81.4,104.6,80.6,103.9,80.2
	z"/>
</svg>
