<?xml version="1.0" encoding="utf-8"?>
<!-- Generator: Adobe Illustrator 26.5.0, SVG Export Plug-In . SVG Version: 6.00 Build 0)  -->
<svg version="1.1" id="map" xmlns="http://www.w3.org/2000/svg" xmlns:xlink="http://www.w3.org/1999/xlink" x="0px" y="0px"
	 viewBox="0 0 114 114" enable-background="new 0 0 114 114" xml:space="preserve">
<g>
	<path fill="#FA8C6E" d="M99,53.8c-0.9,0-1.8,0.4-2.4,1c-0.6,0.6-1,1.5-1,2.4v20.4l-21.2,12v-22c0-0.9-0.4-1.8-1-2.4
		c-0.6-0.6-1.5-1-2.4-1c-0.9,0-1.8,0.4-2.4,1c-0.6,0.6-1,1.5-1,2.4v22l-21.2-12V34.4l7.2,4.1c0.4,0.2,0.8,0.4,1.3,0.4
		c0.4,0.1,0.9,0,1.3-0.1c0.4-0.1,0.8-0.3,1.2-0.6c0.4-0.3,0.7-0.6,0.9-1c0.4-0.8,0.6-1.7,0.3-2.6c-0.2-0.9-0.8-1.6-1.6-2.1l-12.3-7
		c-0.5-0.3-1.1-0.5-1.7-0.5c-0.6,0-1.2,0.2-1.7,0.5l-28,15.9c-0.5,0.3-1,0.7-1.3,1.3c-0.3,0.5-0.5,1.1-0.5,1.7v51
		c0,0.6,0.2,1.2,0.5,1.7c0.3,0.5,0.7,0.9,1.2,1.2c0.5,0.3,1.1,0.5,1.7,0.5c0.6,0,1.2-0.1,1.7-0.4l26.3-15l26.3,15l0.2,0.1l0.2,0.1
		l0.2,0.1l0.2,0.1c0.1,0,0.2,0,0.3,0.1h0.2c0.1,0,0.3,0,0.4,0h0.4h0.2c0.1,0,0.2,0,0.3-0.1l0.2-0.1l0.2-0.1l0.2-0.1l0.2-0.1l28-16
		c0.5-0.3,1-0.7,1.3-1.3c0.3-0.5,0.5-1.1,0.5-1.7V57.2c0-0.9-0.4-1.8-1-2.4C100.8,54.2,99.9,53.8,99,53.8z M39.6,77.6l-21.2,12V46.5
		l21.2-12L39.6,77.6z"/>
	<path fill="#FA8C6E" d="M79,64.6c0.3,0.3,0.7,0.6,1.1,0.7c0.4,0.2,0.9,0.3,1.3,0.3c0.5,0,0.9-0.1,1.3-0.3c0.4-0.2,0.8-0.4,1.1-0.8
		c2.9-3.1,5.6-6.5,8-10c5.4-7.7,8.1-14.5,8.3-20.2c0-0.3,0-0.6,0-0.9c-0.1-4.9-2.1-9.6-5.6-13c-3.5-3.4-8.2-5.4-13.1-5.4
		c-5,0-9.8,2-13.3,5.5c-3.5,3.5-5.5,8.3-5.5,13.3v0.1C62.7,48.1,78.4,64,79,64.6z M81.5,22c3.2,0,6.2,1.3,8.4,3.5
		c2.2,2.2,3.5,5.3,3.5,8.4v0.2c0,7.4-7.3,17.5-12,23.1C76.7,51.8,69.4,41.8,69.4,34v-0.1c0-1.6,0.3-3.1,0.9-4.6s1.5-2.8,2.6-3.9
		c1.1-1.1,2.4-2,3.9-2.6C78.3,22.2,79.9,21.9,81.5,22L81.5,22z"/>
	<path fill="#FA8C6E" d="M81.5,44.5c2.7,0,5.2-1.1,7.1-2.9c1.9-1.9,2.9-4.4,2.9-7.1c0-2.7-1.1-5.2-2.9-7.1c-1.9-1.9-4.4-2.9-7.1-3
		c-2.7,0-5.2,1.1-7.1,3c-1.9,1.9-2.9,4.4-2.9,7.1c0,2.7,1.1,5.2,2.9,7.1C76.3,43.4,78.8,44.4,81.5,44.5z M81.5,31.2
		c0.9,0,1.7,0.3,2.3,1c0.6,0.6,0.9,1.4,0.9,2.3c0,0.9-0.3,1.7-0.9,2.3c-0.6,0.6-1.4,0.9-2.3,0.9s-1.7-0.3-2.3-0.9
		c-0.6-0.6-0.9-1.4-0.9-2.3c0-0.9,0.3-1.7,0.9-2.3C79.8,31.5,80.6,31.2,81.5,31.2z"/>
</g>
</svg>
