<?xml version="1.0" encoding="utf-8"?>
<!-- Generator: Adobe Illustrator 26.5.0, SVG Export Plug-In . SVG Version: 6.00 Build 0)  -->
<svg version="1.1" id="Layer_1" xmlns="http://www.w3.org/2000/svg" xmlns:xlink="http://www.w3.org/1999/xlink" x="0px" y="0px"
	 viewBox="0 0 21 16.5" enable-background="new 0 0 21 16.5" xml:space="preserve" fill="currentColor">
<path  d="M19.9,3.3l-3,1.7V1.5c0-0.8-0.7-1.5-1.5-1.5H1.5C0.7,0,0,0.7,0,1.5V15c0,0.8,0.7,1.5,1.5,1.5h13.9
	c0.8,0,1.5-0.7,1.5-1.5v-3.6l3,1.7c0.5,0.3,1.1-0.1,1.1-0.6V4C21,3.4,20.4,3,19.9,3.3z M6.2,4.5c0,0.1-0.1,0.2-0.2,0.2H3.4
	c-0.1,0-0.2-0.1-0.2-0.2V3.4c0-0.1,0.1-0.2,0.2-0.2H6c0.1,0,0.2,0.1,0.2,0.2V4.5z M19.3,10.9l-2.4-1.4V7l2.4-1.4V10.9z"/>
</svg>
