<?xml version="1.0" encoding="utf-8"?>
<!-- Generator: Adobe Illustrator 26.4.1, SVG Export Plug-In . SVG Version: 6.00 Build 0)  -->
<svg version="1.1" id="Layer_1" xmlns="http://www.w3.org/2000/svg" xmlns:xlink="http://www.w3.org/1999/xlink" x="0px" y="0px"
	 viewBox="0 0 208.8 59.4" style="enable-background:new 0 0 208.8 59.4;" xml:space="preserve">
<style type="text/css">
	.st0{clip-path:url(#SVGID_00000181800957043646850850000008395441372165032864_);}
	.st1{fill:#3959A0;}
	.st2{fill:#9B9C9B;}
</style>
<g>
	<defs>
		<rect id="SVGID_1_" width="208.8" height="59.4"/>
	</defs>
	<clipPath id="SVGID_00000074440912082739092330000009624483826760859566_">
		<use xlink:href="#SVGID_1_"  style="overflow:visible;"/>
	</clipPath>
	<g style="clip-path:url(#SVGID_00000074440912082739092330000009624483826760859566_);">
		<path class="st1" d="M63.7,29.7c0-11.7,6.3-17.9,15-17.9s15,6.2,15,17.9s-6.3,17.9-15,17.9S63.7,41.4,63.7,29.7z M89.7,29.7
			c0-9.5-4.3-14.4-10.9-14.4c-6.7,0-10.9,4.9-10.9,14.4s4.3,14.4,10.9,14.4C85.4,44.1,89.6,39.2,89.7,29.7L89.7,29.7z"/>
		<path class="st1" d="M98.4,46V22.1c0-0.3,0.1-0.5,0.3-0.7c0.2-0.2,0.4-0.3,0.7-0.3h1.6c0.3,0,0.5,0.1,0.7,0.3
			c0.2,0.2,0.3,0.4,0.3,0.7v0.8c1-0.3,4-2.2,8.4-2.2s7.8,1.9,7.8,8V46c0,0.3-0.1,0.5-0.3,0.7c-0.2,0.2-0.4,0.3-0.7,0.3h-1.6
			c-0.3,0-0.5-0.1-0.7-0.3c-0.2-0.2-0.3-0.4-0.3-0.7V28.8c0-3-1.5-4.5-4.6-4.5c-2.7,0.1-5.4,0.6-7.9,1.7v20c0,0.3-0.1,0.5-0.3,0.7
			c-0.2,0.2-0.4,0.3-0.7,0.3h-1.6c-0.1,0-0.3,0-0.4-0.1c-0.1,0-0.2-0.1-0.3-0.2c-0.1-0.1-0.2-0.2-0.2-0.3
			C98.5,46.3,98.4,46.2,98.4,46z"/>
		<path class="st2" d="M138.1,38.1l-5.8-11.8c-1-2.1-3-6.1-3.1-6.6c-0.1-0.5-0.2-0.5-0.3-0.5s-0.2,0.1-0.2,0.5
			c0.1,0.8,0.2,4.8,0.2,6.6V46c0,0.3-0.1,0.5-0.3,0.7c-0.2,0.2-0.4,0.3-0.7,0.3h-1.8c-0.3,0-0.5-0.1-0.7-0.3
			c-0.2-0.2-0.3-0.4-0.3-0.7V13.4c0-0.3,0.1-0.5,0.3-0.7c0.2-0.2,0.4-0.3,0.7-0.3h2.3c0.2,0,0.5,0.1,0.7,0.2
			c0.2,0.1,0.3,0.3,0.4,0.6l7.2,14.5c1,2.1,3,6,3,6.3c0,0.3,0.1,0.4,0.2,0.4c0.2,0,0.2-0.1,0.2-0.4s2-4.3,3-6.3l7.1-14.6
			c0.1-0.2,0.2-0.4,0.4-0.6c0.2-0.1,0.4-0.2,0.7-0.2h2.3c0.3,0,0.5,0.1,0.7,0.3c0.2,0.2,0.3,0.4,0.3,0.7V46c0,0.3-0.1,0.5-0.3,0.7
			c-0.2,0.2-0.4,0.3-0.7,0.3h-1.8c-0.3,0-0.5-0.1-0.7-0.3c-0.2-0.2-0.3-0.4-0.3-0.7V26.3c0-1.9,0-5.9,0.2-6.6c0.1-0.4,0-0.5-0.2-0.5
			c-0.2,0-0.2,0.1-0.3,0.5c-0.1,0.4-2.2,4.7-3.1,6.6l-5.8,11.8c-0.3,0.7-0.5,0.9-1.1,0.9h-1.2C138.6,39,138.4,38.7,138.1,38.1z"/>
		<path class="st2" d="M160.2,34.1c0-7.9,4-13.5,11.4-13.5c6.4,0,9.9,3.8,9.9,10.3c0,1.2-0.1,2.4-0.4,3.6h-17.3c0,6.2,3.1,10,8.9,10
			c2.5-0.1,4.9-0.8,7-2.2c0.2-0.2,0.5-0.2,0.8-0.3c0.5,0,0.8,0.3,0.8,0.9v0.8c0,0.3-0.1,0.7-0.2,1c-0.2,0.3-0.4,0.5-0.8,0.7
			c-2.4,1.6-5.3,2.4-8.2,2.3C164.1,47.6,160.2,42,160.2,34.1z M177.9,31.6c0.1-0.6,0.1-1.2,0.1-1.8c0-0.8-0.1-1.6-0.4-2.4
			c-0.3-0.8-0.7-1.4-1.3-2c-0.6-0.6-1.3-1-2-1.3c-0.8-0.3-1.6-0.4-2.4-0.4c-5.1,0-7,3.4-7.7,7.9H177.9z"/>
		<path class="st2" d="M185.3,34.1c0-7.9,3.5-13.5,10.8-13.5c1.5,0,3,0.3,4.3,1c1.3,0.7,2.5,1.7,3.4,2.9V9.3c0-0.3,0.1-0.5,0.3-0.7
			c0.2-0.2,0.4-0.3,0.7-0.3h1.6c0.3,0,0.5,0.1,0.7,0.3c0.2,0.2,0.3,0.4,0.3,0.7v34c0,1.2,0.4,1.7,1.3,1.7v0.7c0,0.8-0.8,1.7-2.6,1.7
			c-1.4,0-2.4-0.7-2.4-2.8v-0.9c-0.9,1.2-2,2.2-3.4,2.9c-1.3,0.7-2.8,1-4.3,1C188.8,47.6,185.3,42,185.3,34.1z M203.8,39.2V28.9
			c-0.6-1.5-1.7-2.8-3.1-3.7c-1.4-0.9-3-1.4-4.6-1.4c-4.3,0-7.1,3-7.1,10.3s2.8,10.3,7.1,10.3c1.6,0,3.3-0.5,4.6-1.4
			C202.1,42.1,203.2,40.7,203.8,39.2z"/>
		<path class="st2" d="M43.6,32c0-0.1,0-0.1-0.1-0.2c0,0-0.1-0.1-0.2-0.1H28c-0.1,0-0.1,0-0.2,0.1c0,0-0.1,0.1-0.1,0.2v16.8
			c0,0,0,0.1,0,0.1c0,0,0.1,0.1,0.1,0.1c0,0,0.1,0,0.1,0c0,0,0.1,0,0.1,0l3.5-2c0,0,0.1-0.1,0.1-0.1c0,0,0-0.1,0-0.1v-7.6
			c0-0.1,0-0.1,0-0.1c0,0,0.1-0.1,0.1-0.1c0,0,0.1,0,0.1,0c0,0,0.1,0,0.1,0.1l4.7,4.7c0,0,0.1,0.1,0.2,0.1c0.1,0,0.1,0,0.2-0.1
			l3.1-1.8c0,0,0.1-0.1,0.1-0.1s0-0.1,0-0.1c0,0,0-0.1,0-0.1c0,0,0-0.1-0.1-0.1L35,36.1c0,0-0.1-0.1-0.1-0.1c0,0,0-0.1,0-0.1
			c0,0,0.1-0.1,0.1-0.1c0,0,0.1,0,0.1,0h8.1c0.1,0,0.1,0,0.2-0.1c0,0,0.1-0.1,0.1-0.2L43.6,32z"/>
		<path class="st1" d="M20.9,31.7H8.1c-0.1,0-0.1,0-0.2,0.1c0,0-0.1,0.1-0.1,0.2v3.5c0,0.1,0,0.1,0.1,0.2c0,0,0.1,0.1,0.2,0.1h8.1
			c0.1,0,0.1,0,0.1,0c0,0,0.1,0.1,0.1,0.1s0,0.1,0,0.1c0,0.1,0,0.1-0.1,0.1l-5.4,5.3c0,0,0,0.1-0.1,0.1c0,0,0,0.1,0,0.1s0,0.1,0,0.1
			c0,0,0.1,0.1,0.1,0.1l3.1,1.8c0,0,0.1,0.1,0.2,0.1c0.1,0,0.1,0,0.2-0.1l4.7-4.7c0,0,0.1-0.1,0.1-0.1c0,0,0.1,0,0.1,0
			c0,0,0.1,0.1,0.1,0.1c0,0,0,0.1,0,0.1v7.5c0,0,0,0.1,0,0.1c0,0,0.1,0.1,0.1,0.1l3.5,2c0,0,0.1,0,0.1,0c0,0,0.1,0,0.1,0
			c0,0,0.1-0.1,0.1-0.1c0,0,0-0.1,0-0.1V32c0-0.1,0-0.1-0.1-0.2c0,0-0.1-0.1-0.2-0.1H20.9z"/>
		<path class="st2" d="M19.7,12.7v7.5c0,0.1,0,0.1,0,0.1c0,0-0.1,0.1-0.1,0.1c0,0-0.1,0-0.1,0c0,0-0.1,0-0.1-0.1l-4.7-4.7
			c0,0-0.1-0.1-0.2-0.1s-0.1,0-0.2,0.1l-3.1,1.8c0,0-0.1,0-0.1,0.1c0,0,0,0.1,0,0.1s0,0.1,0,0.1c0,0,0,0.1,0.1,0.1l5.4,5.4
			c0,0,0.1,0.1,0.1,0.1c0,0.1,0,0.1,0,0.1c0,0-0.1,0.1-0.1,0.1c0,0-0.1,0-0.1,0H8.1c-0.1,0-0.1,0-0.2,0.1c0,0-0.1,0.1-0.1,0.2v3.5
			c0,0,0,0.1,0,0.1c0,0,0,0.1,0.1,0.1c0,0,0.1,0,0.1,0.1c0,0,0.1,0,0.1,0h15.3c0.1,0,0.1,0,0.2-0.1c0,0,0.1-0.1,0.1-0.2V10.7
			c0,0,0-0.1,0-0.1c0,0-0.1-0.1-0.1-0.1c0,0-0.1,0-0.1,0c0,0-0.1,0-0.1,0l-3.5,2c0,0-0.1,0.1-0.1,0.1C19.7,12.6,19.7,12.7,19.7,12.7
			z"/>
		<path class="st2" d="M31.7,12.7v7.5c0,0.1,0,0.1,0,0.1c0,0,0.1,0.1,0.1,0.1c0,0,0.1,0,0.1,0c0,0,0.1,0,0.1-0.1l4.7-4.7
			c0,0,0.1-0.1,0.2-0.1c0.1,0,0.1,0,0.2,0.1l3.1,1.8c0,0,0.1,0.1,0.1,0.1c0,0,0,0.1,0,0.1c0,0,0,0.1,0,0.1c0,0,0,0.1-0.1,0.1
			L35,23.3c0,0-0.1,0.1-0.1,0.1c0,0,0,0.1,0,0.1c0,0,0.1,0.1,0.1,0.1c0,0,0.1,0,0.1,0h8.1c0.1,0,0.1,0,0.2,0.1c0,0,0.1,0.1,0.1,0.2
			v3.5c0,0,0,0.1,0,0.1c0,0,0,0.1-0.1,0.1c0,0-0.1,0-0.1,0.1c0,0-0.1,0-0.1,0H28c-0.1,0-0.1,0-0.2-0.1c0,0-0.1-0.1-0.1-0.2V10.7
			c0,0,0-0.1,0-0.1c0,0,0.1-0.1,0.1-0.1c0,0,0.1,0,0.1,0c0,0,0.1,0,0.1,0l3.5,2c0,0,0.1,0.1,0.1,0.1C31.7,12.6,31.7,12.7,31.7,12.7z
			"/>
		<path class="st1" d="M25.7,0L0,14.8v29.7l25.7,14.8l25.7-14.8V14.8L25.7,0z M47.5,42.3L25.7,54.8L4,42.3V17.2L25.7,4.6l21.7,12.6
			V42.3z"/>
		<path class="st1" d="M15.6,37l2.6,3L10,48.3l-3.1-2.6L15.6,37z"/>
	</g>
</g>
</svg>
