<?xml version="1.0" encoding="utf-8"?>
<!-- Generator: Adobe Illustrator 26.4.1, SVG Export Plug-In . SVG Version: 6.00 Build 0)  -->
<svg version="1.1" id="Layer_1" xmlns="http://www.w3.org/2000/svg" xmlns:xlink="http://www.w3.org/1999/xlink" x="0px" y="0px"
	 viewBox="0 0 178.9 50.9" style="enable-background:new 0 0 178.9 50.9;" xml:space="preserve">
<style type="text/css">
	.st0{fill:#FFFFFF;}
</style>
<g>
	<path class="st0" d="M54.6,25.5c0-10,5.4-15.4,12.9-15.4c7.4,0,12.9,5.3,12.9,15.4c0,10-5.4,15.3-12.9,15.3
		C60,40.8,54.6,35.5,54.6,25.5z M76.8,25.5c0-8.2-3.7-12.3-9.4-12.3c-5.7,0-9.4,4.2-9.4,12.3c0,8.1,3.7,12.3,9.4,12.3
		C73.2,37.8,76.8,33.6,76.8,25.5z"/>
	<path class="st0" d="M84.3,39.4V18.9c0-0.5,0.4-0.9,0.9-0.9h1.4c0.5,0,0.9,0.4,0.9,0.9v0.7c0.9-0.2,3.4-1.9,7.2-1.9
		c3.9,0,6.7,1.6,6.7,6.8v14.8c0,0.5-0.4,0.9-0.9,0.9h-1.4c-0.5,0-0.9-0.4-0.9-0.9V24.6c0-2.6-1.3-3.9-4-3.9c-3.6,0-6.7,1.5-6.7,1.5
		v17.2c0,0.5-0.4,0.9-0.9,0.9h-1.4C84.7,40.3,84.3,39.9,84.3,39.4z"/>
	<path class="st0" d="M118.3,32.6l-5-10.1c-0.8-1.8-2.6-5.2-2.7-5.7c-0.1-0.4-0.1-0.4-0.2-0.4c-0.1,0-0.2,0.1-0.1,0.4
		c0.1,0.6,0.1,4.1,0.1,5.7v16.9c0,0.5-0.4,0.9-0.9,0.9H108c-0.5,0-0.9-0.4-0.9-0.9v-28c0-0.5,0.4-0.9,0.9-0.9h2
		c0.5,0,0.7,0.3,0.9,0.7l6.1,12.5c0.9,1.8,2.6,5.1,2.6,5.4c0,0.2,0,0.3,0.2,0.3c0.1,0,0.2-0.1,0.2-0.3c0-0.3,1.7-3.7,2.6-5.4
		l6.1-12.5c0.2-0.4,0.4-0.7,0.9-0.7h2c0.5,0,0.9,0.4,0.9,0.9v28c0,0.5-0.4,0.9-0.9,0.9H130c-0.5,0-0.9-0.4-0.9-0.9V22.5
		c0-1.6,0-5,0.1-5.7c0-0.3,0-0.4-0.1-0.4c-0.1,0-0.1,0-0.2,0.4c-0.1,0.4-1.9,4-2.7,5.7l-5,10.1c-0.3,0.6-0.5,0.8-1,0.8h-1
		C118.8,33.4,118.6,33.2,118.3,32.6z"/>
	<path class="st0" d="M137.3,29.2c0-6.8,3.4-11.6,9.8-11.6c5.5,0,8.5,3.2,8.5,8.8c0,0.9-0.1,2.1-0.3,3.1h-14.8
		c0,5.3,2.6,8.5,7.7,8.5c3,0,5.1-1.4,6-1.9c0.2-0.1,0.5-0.2,0.7-0.2c0.4,0,0.6,0.3,0.6,0.7v0.7c0,0.6-0.1,1-0.9,1.4
		c-0.8,0.5-3,2-7,2C140.6,40.8,137.3,36,137.3,29.2z M152.4,27c0.1-0.6,0.1-1.1,0.1-1.5c0-3.2-2.3-5.2-5.2-5.2c-4.4,0-6,2.9-6.6,6.8
		H152.4z"/>
	<path class="st0" d="M158.8,29.2c0-6.8,3-11.6,9.2-11.6c3.2,0,5.6,1.8,6.6,3.3V8c0-0.5,0.4-0.9,0.9-0.9h1.4c0.5,0,0.9,0.4,0.9,0.9
		v29.1c0,1.1,0.4,1.5,1.2,1.5v0.6c0,0.6-0.6,1.4-2.3,1.4c-1.2,0-2-0.6-2-2.4v-0.8c-1,1.6-3.4,3.3-6.6,3.3
		C161.8,40.8,158.8,36,158.8,29.2z M174.6,33.6v-8.8c-0.8-2.1-3.2-4.4-6.6-4.4c-3.7,0-6.1,2.6-6.1,8.8s2.4,8.8,6.1,8.8
		C171.4,38,173.8,35.7,174.6,33.6z"/>
	<polygon class="st0" points="37.3,27.2 23.8,27.2 23.8,42.1 27.2,40.1 27.2,33 31.7,37.5 34.8,35.8 29.6,30.6 37.3,30.6 	"/>
	<polygon class="st0" points="6.7,27.2 6.7,30.6 14.5,30.6 9.3,35.8 12.4,37.5 16.9,33 16.9,40.1 20.3,42.1 20.3,27.2 	"/>
	<polygon class="st0" points="16.9,10.8 16.9,17.9 12.4,13.4 9.3,15.1 14.5,20.3 6.7,20.3 6.7,23.7 20.3,23.7 20.3,8.8 	"/>
	<polygon class="st0" points="27.2,10.8 27.2,17.9 31.7,13.4 34.8,15.1 29.6,20.3 37.3,20.3 37.3,23.7 23.8,23.7 23.8,8.8 	"/>
	<path class="st0" d="M22,0L0,12.7v25.4l22,12.7l22-12.7V12.7L22,0z M40.7,36.2L22,47L3.4,36.2V14.7L22,3.9l18.6,10.8V36.2z"/>
</g>
</svg>
