<?xml version="1.0" encoding="utf-8"?>
<!-- Generator: Adobe Illustrator 26.5.0, SVG Export Plug-In . SVG Version: 6.00 Build 0)  -->
<svg version="1.1" id="Layer_1" xmlns="http://www.w3.org/2000/svg" xmlns:xlink="http://www.w3.org/1999/xlink" x="0px" y="0px"
	 viewBox="0 0 44.1 50.9" enable-background="new 0 0 44.1 50.9" xml:space="preserve">
<g>
	<polygon fill="#FFFFFF" points="37.3,27.2 23.8,27.2 23.8,42.1 27.2,40.1 27.2,33 31.7,37.5 34.8,35.8 29.6,30.6 37.3,30.6 	"/>
	<polygon fill="#FFFFFF" points="6.7,27.2 6.7,30.6 14.5,30.6 9.3,35.8 12.4,37.5 16.9,33 16.9,40.1 20.3,42.1 20.3,27.2 	"/>
	<polygon fill="#FFFFFF" points="16.9,10.8 16.9,17.9 12.4,13.4 9.3,15.1 14.5,20.3 6.7,20.3 6.7,23.7 20.3,23.7 20.3,8.8 	"/>
	<polygon fill="#FFFFFF" points="27.2,10.8 27.2,17.9 31.7,13.4 34.8,15.1 29.6,20.3 37.3,20.3 37.3,23.7 23.8,23.7 23.8,8.8 	"/>
	<path fill="#FFFFFF" d="M22,0L0,12.7v25.4l22,12.7l22-12.7V12.7L22,0z M40.7,36.2L22,47L3.4,36.2V14.7L22,3.9l18.6,10.8v21.5H40.7z
		"/>
</g>
</svg>
