<svg width="537" height="656" viewBox="0 0 537 656" fill="none" xmlns="http://www.w3.org/2000/svg">
<g clip-path="url(#clip0_319_478)">
<path d="M146.559 21.8895V64.1601L109.988 85.2954L73.4336 64.1601V21.8895L109.988 0.754198L146.559 21.8895Z" stroke="#E6EDEF" stroke-miterlimit="10"/>
<path d="M219.341 21.8895V64.1601L182.77 85.2954L146.216 64.1601V21.8895L182.77 0.754198L219.341 21.8895Z" stroke="#E6EDEF" stroke-miterlimit="10"/>
<path d="M292.123 21.8895V64.1601L255.552 85.2954L218.998 64.1601V21.8895L255.552 0.754198L292.123 21.8895Z" stroke="#E6EDEF" stroke-miterlimit="10"/>
<path d="M364.906 21.8895V64.1601L328.352 85.2954L291.781 64.1601V21.8895L328.352 0.754198L364.906 21.8895Z" stroke="#E6EDEF" stroke-miterlimit="10"/>
<path d="M437.689 21.8895V64.1601L401.135 85.2954L364.563 64.1601V21.8895L401.135 0.754198L437.689 21.8895Z" stroke="#E6EDEF" stroke-miterlimit="10"/>
<path d="M510.472 21.8895V64.1601L473.918 85.2954L437.347 64.1601V21.8895L473.918 0.754198L510.472 21.8895Z" stroke="#E6EDEF" stroke-miterlimit="10"/>
<path d="M583.254 21.8895V64.1601L546.7 85.2954L510.129 64.1601V21.8895L546.7 0.754198L583.254 21.8895Z" stroke="#E6EDEF" stroke-miterlimit="10"/>
<path d="M110.158 85.2611V127.532L73.6043 148.667L37.0332 127.532V85.2611L73.6043 64.1258L110.158 85.2611Z" stroke="#E6EDEF" stroke-miterlimit="10"/>
<path d="M182.959 85.2611V127.532L146.387 148.667L109.816 127.532V85.2611L146.387 64.1258L182.959 85.2611Z" stroke="#E6EDEF" stroke-miterlimit="10"/>
<path d="M255.741 85.2611V127.532L219.17 148.667L182.599 127.532V85.2611L219.17 64.1258L255.741 85.2611Z" stroke="#E6EDEF" stroke-miterlimit="10"/>
<path d="M328.523 85.2611V127.532L291.952 148.667L255.381 127.532V85.2611L291.952 64.1258L328.523 85.2611Z" stroke="#E6EDEF" stroke-miterlimit="10"/>
<path d="M401.306 85.2611V127.532L364.735 148.667L328.164 127.532V85.2611L364.735 64.1258L401.306 85.2611Z" stroke="#E6EDEF" stroke-miterlimit="10"/>
<path d="M474.088 85.2611V127.532L437.517 148.667L400.946 127.532V85.2611L437.517 64.1258L474.088 85.2611Z" stroke="#E6EDEF" stroke-miterlimit="10"/>
<path d="M546.871 85.2611V127.532L510.3 148.667L473.729 127.532V85.2611L510.3 64.1258L546.871 85.2611Z" stroke="#E6EDEF" stroke-miterlimit="10"/>
<path d="M73.7754 148.53V190.8L37.2043 211.936L0.650391 190.8V148.53L37.2043 127.395L73.7754 148.53Z" stroke="#E6EDEF" stroke-miterlimit="10"/>
<path d="M146.559 148.53V190.8L109.988 211.936L73.4336 190.8V148.53L109.988 127.395L146.559 148.53Z" stroke="#E6EDEF" stroke-miterlimit="10"/>
<path d="M219.341 148.53V190.8L182.77 211.936L146.216 190.8V148.53L182.77 127.395L219.341 148.53Z" stroke="#E6EDEF" stroke-miterlimit="10"/>
<path d="M292.123 148.53V190.8L255.552 211.936L218.998 190.8V148.53L255.552 127.395L292.123 148.53Z" stroke="#E6EDEF" stroke-miterlimit="10"/>
<path d="M364.906 148.53V190.8L328.352 211.936L291.781 190.8V148.53L328.352 127.395L364.906 148.53Z" stroke="#E6EDEF" stroke-miterlimit="10"/>
<path d="M437.689 148.53V190.8L401.135 211.936L364.563 190.8V148.53L401.135 127.395L437.689 148.53Z" stroke="#E6EDEF" stroke-miterlimit="10"/>
<path d="M510.472 148.53V190.8L473.918 211.936L437.347 190.8V148.53L473.918 127.395L510.472 148.53Z" stroke="#E6EDEF" stroke-miterlimit="10"/>
<path d="M583.254 148.53V190.8L546.7 211.936L510.129 190.8V148.53L546.7 127.395L583.254 148.53Z" stroke="#E6EDEF" stroke-miterlimit="10"/>
<path d="M110.158 211.919V254.189L73.6043 275.325L37.0332 254.189V211.919L73.6043 190.784L110.158 211.919Z" stroke="#E6EDEF" stroke-miterlimit="10"/>
<path d="M255.741 211.919V254.189L219.17 275.325L182.599 254.189V211.919L219.17 190.784L255.741 211.919Z" stroke="#E6EDEF" stroke-miterlimit="10"/>
<path d="M328.523 211.919V254.189L291.952 275.325L255.381 254.189V211.919L291.952 190.784L328.523 211.919Z" stroke="#E6EDEF" stroke-miterlimit="10"/>
<path d="M401.306 211.919V254.189L364.735 275.325L328.164 254.189V211.919L364.735 190.784L401.306 211.919Z" stroke="#E6EDEF" stroke-miterlimit="10"/>
<path d="M474.088 211.919V254.189L437.517 275.325L400.946 254.189V211.919L437.517 190.784L474.088 211.919Z" stroke="#E6EDEF" stroke-miterlimit="10"/>
<path d="M546.871 211.919V254.189L510.3 275.325L473.729 254.189V211.919L510.3 190.784L546.871 211.919Z" stroke="#E6EDEF" stroke-miterlimit="10"/>
<path d="M219.341 275.17V317.441L182.77 338.576L146.216 317.441V275.17L182.77 254.035L219.341 275.17Z" stroke="#E6EDEF" stroke-miterlimit="10"/>
<path d="M292.123 275.17V317.441L255.552 338.576L218.998 317.441V275.17L255.552 254.035L292.123 275.17Z" stroke="#E6EDEF" stroke-miterlimit="10"/>
<path d="M437.689 275.17V317.441L401.135 338.576L364.563 317.441V275.17L401.135 254.035L437.689 275.17Z" stroke="#E6EDEF" stroke-miterlimit="10"/>
<path d="M255.741 338.559V380.83L219.17 401.965L182.599 380.83V338.559L219.17 317.424L255.741 338.559Z" stroke="#E6EDEF" stroke-miterlimit="10"/>
<path d="M328.523 338.559V380.83L291.952 401.965L255.381 380.83V338.559L291.952 317.424L328.523 338.559Z" stroke="#E6EDEF" stroke-miterlimit="10"/>
<path d="M474.088 338.559V380.83L437.517 401.965L400.946 380.83V338.559L437.517 317.424L474.088 338.559Z" stroke="#E6EDEF" stroke-miterlimit="10"/>
<path d="M110.346 338.559V380.83L73.7752 401.965L37.2041 380.83V338.559L73.7752 317.424L110.346 338.559Z" stroke="#E6EDEF" stroke-miterlimit="10"/>
<path d="M546.871 338.559V380.83L510.3 401.965L473.729 380.83V338.559L510.3 317.424L546.871 338.559Z" stroke="#E6EDEF" stroke-miterlimit="10"/>
<path d="M292.123 401.828V444.099L255.552 465.234L218.998 444.099V401.828L255.552 380.693L292.123 401.828Z" stroke="#E6EDEF" stroke-miterlimit="10"/>
<path d="M510.472 401.828V444.099L473.918 465.234L437.347 444.099V401.828L473.918 380.693L510.472 401.828Z" stroke="#E6EDEF" stroke-miterlimit="10"/>
<path d="M583.254 401.828V444.099L546.7 465.234L510.129 444.099V401.828L546.7 380.693L583.254 401.828Z" stroke="#E6EDEF" stroke-miterlimit="10"/>
<path d="M474.088 465.2V507.47L437.517 528.605L400.946 507.47V465.2L437.517 444.064L474.088 465.2Z" stroke="#E6EDEF" stroke-miterlimit="10"/>
<path d="M546.871 465.2V507.47L510.3 528.605L473.729 507.47V465.2L510.3 444.064L546.871 465.2Z" stroke="#E6EDEF" stroke-miterlimit="10"/>
<path d="M328.695 528.468V570.739L292.124 591.874L255.553 570.739V528.468L292.124 507.333L328.695 528.468Z" stroke="#E6EDEF" stroke-miterlimit="10"/>
<path d="M510.472 528.468V570.739L473.918 591.874L437.347 570.739V528.468L473.918 507.333L510.472 528.468Z" stroke="#E6EDEF" stroke-miterlimit="10"/>
</g>
<defs>
<clipPath id="clip0_319_478">
<rect width="1057" height="656" fill="white" transform="matrix(1 0 0 -1 0 656)"/>
</clipPath>
</defs>
</svg>
