<?xml version="1.0" encoding="utf-8"?>
<!-- Generator: Adobe Illustrator 26.5.0, SVG Export Plug-In . SVG Version: 6.00 Build 0)  -->
<svg version="1.1" id="fb" xmlns="http://www.w3.org/2000/svg" xmlns:xlink="http://www.w3.org/1999/xlink" x="0px" y="0px"
	 viewBox="0 0 28.9 33.4" enable-background="new 0 0 28.9 33.4" xml:space="preserve">
<rect x="-847.1" y="-813.3" fill="none" width="1723" height="1660"/>
<rect x="-847.1" y="-813.3" fill="none" width="1723" height="1660"/>
<path fill="#FFFFFF" d="M0,8.3V25l14.4,8.3L28.9,25V8.3L14.4,0L0,8.3z"/>
<path fill="#3258A3" d="M18.1,18.6l0.5-3.3h-3.2v-2.2c0-0.2,0-0.5,0.1-0.7c0.1-0.2,0.2-0.4,0.4-0.6c0.2-0.2,0.4-0.3,0.6-0.4
	c0.2-0.1,0.5-0.1,0.7-0.1h1.4V8.4c-0.9-0.1-1.7-0.2-2.6-0.2c-2.6,0-4.3,1.6-4.3,4.5v2.5h-3v3.3h3v8h3.6v-8H18.1z"/>
</svg>
