<?xml version="1.0" encoding="utf-8"?>
<!-- Generator: Adobe Illustrator 26.5.0, SVG Export Plug-In . SVG Version: 6.00 Build 0)  -->
<svg version="1.1" id="IG" xmlns="http://www.w3.org/2000/svg" xmlns:xlink="http://www.w3.org/1999/xlink" x="0px" y="0px"
	 viewBox="0 0 28.9 33.4" enable-background="new 0 0 28.9 33.4" xml:space="preserve">
<path fill="#FFFFFF" d="M0,8.3V25l14.5,8.3L28.9,25V8.3L14.5,0L0,8.3z"/>
<path fill="#3258A3" d="M14.4,10.7c1.9,0,2.2,0,2.9,0c0.5,0,0.9,0.1,1.3,0.2c0.3,0.1,0.6,0.3,0.8,0.5c0.2,0.2,0.4,0.5,0.5,0.8
	c0.2,0.4,0.2,0.9,0.2,1.4c0,0.8,0,1,0,2.9s0,2.2,0,2.9c0,0.5-0.1,0.9-0.2,1.4c-0.1,0.3-0.3,0.6-0.5,0.8c-0.2,0.2-0.5,0.4-0.8,0.5
	c-0.4,0.2-0.9,0.2-1.3,0.2c-0.8,0-1,0-2.9,0s-2.2,0-2.9,0c-0.5,0-0.9-0.1-1.3-0.2c-0.3-0.1-0.6-0.3-0.8-0.5
	c-0.2-0.2-0.4-0.5-0.5-0.8c-0.2-0.4-0.2-0.9-0.2-1.4c0-0.8,0-1,0-2.9s0-2.2,0-2.9c0-0.5,0.1-0.9,0.2-1.4c0.1-0.3,0.3-0.6,0.5-0.8
	c0.2-0.2,0.5-0.4,0.8-0.5c0.4-0.2,0.9-0.2,1.3-0.2C12.3,10.8,12.5,10.7,14.4,10.7z M14.4,9.4c-2,0-2.2,0-3,0c-0.6,0-1.2,0.1-1.8,0.3
	c-0.5,0.2-0.9,0.5-1.3,0.8C8,11,7.8,11.4,7.6,11.9c-0.2,0.6-0.3,1.2-0.3,1.8c0,0.8,0,1,0,3s0,2.2,0,3c0,0.6,0.1,1.2,0.3,1.8
	c0.2,0.5,0.5,0.9,0.8,1.3c0.4,0.4,0.8,0.7,1.3,0.8c0.6,0.2,1.2,0.3,1.8,0.3c0.8,0,1,0,3,0s2.2,0,3,0c0.6,0,1.2-0.1,1.8-0.3
	c0.5-0.2,0.9-0.5,1.3-0.8c0.4-0.4,0.7-0.8,0.8-1.3c0.2-0.6,0.3-1.2,0.3-1.8c0-0.8,0-1,0-3s0-2.2,0-3c0-0.6-0.1-1.2-0.3-1.8
	c-0.2-0.5-0.5-0.9-0.8-1.3c-0.4-0.4-0.8-0.6-1.3-0.8c-0.6-0.2-1.2-0.3-1.8-0.3C16.7,9.4,16.4,9.4,14.4,9.4z"/>
<path fill="#3258A3" d="M14.4,12.9c-0.7,0-1.5,0.2-2.1,0.6c-0.6,0.4-1.1,1-1.4,1.7c-0.3,0.7-0.4,1.4-0.2,2.2c0.1,0.7,0.5,1.4,1,1.9
	c0.5,0.5,1.2,0.9,1.9,1c0.7,0.1,1.5,0.1,2.2-0.2c0.7-0.3,1.3-0.8,1.7-1.4c0.4-0.6,0.6-1.3,0.6-2.1c0-0.5-0.1-1-0.3-1.4
	c-0.2-0.5-0.5-0.9-0.8-1.2c-0.3-0.3-0.8-0.6-1.2-0.8C15.4,13,14.9,12.9,14.4,12.9z M14.4,19.1c-0.5,0-0.9-0.1-1.3-0.4
	c-0.4-0.3-0.7-0.6-0.9-1.1c-0.2-0.4-0.2-0.9-0.1-1.4c0.1-0.5,0.3-0.9,0.7-1.2c0.3-0.3,0.8-0.6,1.2-0.7c0.5-0.1,1,0,1.4,0.1
	c0.4,0.2,0.8,0.5,1.1,0.9c0.3,0.4,0.4,0.9,0.4,1.3c0,0.6-0.3,1.3-0.7,1.7C15.7,18.8,15.1,19.1,14.4,19.1z"/>
<path fill="#3258A3" d="M18.3,13.7c0.5,0,0.9-0.4,0.9-0.9c0-0.5-0.4-0.9-0.9-0.9c-0.5,0-0.9,0.4-0.9,0.9
	C17.5,13.3,17.8,13.7,18.3,13.7z"/>
</svg>
