<?xml version="1.0" encoding="utf-8"?>
<!-- Generator: Adobe Illustrator 26.5.0, SVG Export Plug-In . SVG Version: 6.00 Build 0)  -->
<svg version="1.1" id="IG_00000002358172879091724870000008263665076671203200_"
	 xmlns="http://www.w3.org/2000/svg" xmlns:xlink="http://www.w3.org/1999/xlink" x="0px" y="0px" viewBox="0 0 28.9 33.4"
	 enable-background="new 0 0 28.9 33.4" xml:space="preserve">
<path fill="#FFFFFF" d="M0,8.3V25l14.4,8.3L28.9,25V8.3L14.4,0L0,8.3z"/>
<path fill="#3258A3" d="M15.2,15.6c0.2-0.2,0.3-0.4,0.5-0.6c0.3-0.3,0.6-0.5,1-0.6c0.4-0.1,0.8-0.2,1.1-0.2c0.5,0,0.9,0,1.3,0.2
	c0.5,0.1,0.9,0.4,1.2,0.7c0.3,0.3,0.6,0.8,0.7,1.2c0.2,0.7,0.3,1.5,0.2,2.2c0,1.6,0,3.2,0,4.8c0,0.1,0,0.2-0.2,0.2
	c-0.8,0-1.6,0-2.5,0c-0.1,0-0.2-0.1-0.2-0.2c0-1.5,0-3,0-4.5c0-0.4,0-0.8-0.1-1.1c-0.1-0.3-0.2-0.6-0.5-0.8
	c-0.3-0.2-0.6-0.3-0.9-0.2c-0.2,0-0.4,0-0.6,0.1s-0.4,0.2-0.5,0.3c-0.1,0.1-0.3,0.3-0.3,0.5c-0.1,0.2-0.1,0.4-0.1,0.6
	c0,0.2,0,0.5,0,0.7c0,1.5,0,2.9,0,4.4c0,0.2,0,0.2-0.2,0.2c-0.8,0-1.7,0-2.5,0c-0.1,0-0.2,0-0.2-0.2v-8.7c0-0.2,0-0.2,0.2-0.2
	c0.8,0,1.6,0,2.3,0c0.2,0,0.2,0,0.2,0.2C15.1,14.9,15.2,15.3,15.2,15.6z"/>
<path fill="#3258A3" d="M10.7,18.9v4.3c0,0.2,0,0.2-0.2,0.2c-0.8,0-1.6,0-2.5,0c-0.1,0-0.2,0-0.2-0.2v-8.8c0-0.1,0-0.2,0.2-0.2
	c0.8,0,1.7,0,2.5,0c0.2,0,0.2,0.1,0.2,0.2V18.9z"/>
<path fill="#3258A3" d="M10.9,11.5c0,0.2,0,0.4-0.1,0.6c-0.1,0.2-0.2,0.4-0.4,0.5c-0.2,0.2-0.3,0.3-0.5,0.4
	c-0.2,0.1-0.4,0.1-0.6,0.1c-0.3,0-0.6-0.1-0.9-0.3c-0.3-0.2-0.5-0.4-0.6-0.7c-0.1-0.3-0.2-0.6-0.1-0.9c0.1-0.3,0.2-0.6,0.4-0.8
	c0.2-0.2,0.5-0.4,0.8-0.5c0.3-0.1,0.6,0,0.9,0.1c0.3,0.1,0.6,0.3,0.7,0.6C10.8,10.9,10.9,11.2,10.9,11.5L10.9,11.5z"/>
</svg>
