<?xml version="1.0" encoding="utf-8"?>
<!-- Generator: Adobe Illustrator 26.5.0, SVG Export Plug-In . SVG Version: 6.00 Build 0)  -->
<svg version="1.1" id="Layer_5" xmlns="http://www.w3.org/2000/svg" xmlns:xlink="http://www.w3.org/1999/xlink" x="0px" y="0px"
	 viewBox="0 0 28.9 33.4" enable-background="new 0 0 28.9 33.4" xml:space="preserve">
<path fill="#FFFFFF" d="M0,8.3V25l14.4,8.3L28.9,25V8.3L14.4,0L0,8.3z"/>
<path fill="#3258A3" d="M11.7,22.7c1.1,0,2.3-0.2,3.3-0.6c1.1-0.4,2-1.1,2.8-1.9c0.8-0.8,1.4-1.8,1.9-2.8c0.4-1.1,0.7-2.2,0.6-3.3
	v-0.4c0.6-0.4,1.1-1,1.5-1.6c-0.6,0.2-1.2,0.4-1.8,0.5c0.6-0.4,1.1-1,1.3-1.7c-0.6,0.4-1.3,0.6-1.9,0.7c-0.4-0.4-1-0.8-1.6-0.9
	c-0.6-0.1-1.2-0.1-1.8,0.1c-0.6,0.2-1.1,0.6-1.4,1.1c-0.3,0.5-0.5,1.1-0.5,1.7c0,0.2,0,0.5,0.1,0.7c-1.2-0.1-2.4-0.4-3.5-0.9
	c-1.1-0.6-2-1.3-2.8-2.3c-0.3,0.5-0.4,1-0.4,1.5c0,0.5,0.1,1,0.4,1.4c0.2,0.4,0.6,0.8,1,1.1c-0.5,0-1-0.1-1.4-0.4
	c0,0.7,0.2,1.4,0.7,1.9c0.4,0.5,1.1,0.9,1.8,1.1C9.8,17.9,9.5,18,9.2,18c-0.2,0-0.4,0-0.6-0.1c0.2,0.6,0.6,1.1,1.1,1.5
	c0.5,0.4,1.1,0.6,1.8,0.6c-1.1,0.8-2.4,1.3-3.8,1.3c-0.2,0-0.5,0-0.7,0C8.4,22.3,10,22.7,11.7,22.7z"/>
</svg>
