<?xml version="1.0" encoding="utf-8"?>
<!-- Generator: Adobe Illustrator 26.5.0, SVG Export Plug-In . SVG Version: 6.00 Build 0)  -->
<svg version="1.1" id="YT" xmlns="http://www.w3.org/2000/svg" xmlns:xlink="http://www.w3.org/1999/xlink" x="0px" y="0px"
	 viewBox="0 0 28.9 33.4" enable-background="new 0 0 28.9 33.4" xml:space="preserve">
<path fill="#FFFFFF" d="M0,8.3V25l14.4,8.3L28.9,25V8.3L14.4,0L0,8.3z"/>
<path fill="#3258A3" d="M21.8,13c-0.1-0.3-0.3-0.6-0.5-0.9c-0.2-0.2-0.5-0.4-0.9-0.5c-4-0.4-8-0.4-12,0c-0.3,0.1-0.6,0.3-0.9,0.5
	c-0.2,0.2-0.4,0.5-0.5,0.9c-0.4,2.4-0.4,4.9,0,7.4c0.1,0.3,0.3,0.6,0.5,0.9c0.2,0.2,0.5,0.4,0.9,0.5c4,0.4,8,0.4,12,0
	c0.3-0.1,0.6-0.3,0.9-0.5c0.2-0.2,0.4-0.5,0.5-0.9C22.3,18,22.3,15.5,21.8,13z M12.9,19v-4.6l4,2.3L12.9,19z"/>
</svg>
