<?xml version="1.0" encoding="utf-8"?>
<!-- Generator: Adobe Illustrator 26.5.0, SVG Export Plug-In . SVG Version: 6.00 Build 0)  -->
<svg version="1.1" id="Layer_1" xmlns="http://www.w3.org/2000/svg" xmlns:xlink="http://www.w3.org/1999/xlink" x="0px" y="0px"
	 viewBox="0 0 50.9 50.9" style="enable-background:new 0 0 50.9 50.9;" xml:space="preserve">
<style type="text/css">
	.st0{fill:#9B9C9B;}
	.st1{fill:#3D59A8;}
</style>
<g>
	<polygon class="st0" points="40.7,27.2 27.2,27.2 27.2,42.1 30.6,40.1 30.6,33 35.1,37.5 38.2,35.8 33,30.6 40.7,30.6 	"/>
	<polygon class="st1" points="10.1,27.2 10.1,30.6 17.9,30.6 12.7,35.8 15.8,37.5 20.3,33 20.3,40.1 23.7,42.1 23.7,27.2 	"/>
	<polygon class="st0" points="20.3,10.8 20.3,17.9 15.8,13.4 12.7,15.1 17.9,20.3 10.1,20.3 10.1,23.7 23.7,23.7 23.7,8.8 	"/>
	<polygon class="st0" points="30.6,10.8 30.6,17.9 35.1,13.4 38.2,15.1 33,20.3 40.7,20.3 40.7,23.7 27.2,23.7 27.2,8.8 	"/>
	<path class="st0" d="M25.4,0l-22,12.7v25.4l22,12.7l22-12.7V12.7L25.4,0z M44.1,36.2L25.4,47L6.8,36.2V14.7L25.4,3.9L44,14.7v21.5
		H44.1z"/>
</g>
</svg>
